<svg id="marker" data-name="marker" xmlns="http://www.w3.org/2000/svg" width="40" height="60" viewBox="0 0 20 48">
  <g id="mapbox-marker-icon">
    <g id="icon">
      <ellipse id="shadow" cx="10" cy="27" rx="9" ry="5" fill="#c4c4c4" opacity="0.3" style="isolation: isolate"/>
      <g id="mask" opacity="0.3">
        <g id="group">
          <path id="shadow-2" data-name="shadow" fill="#bfbfbf" d="M10,32c5,0,9-2.2,9-5s-4-5-9-5-9,2.2-9,5S5,32,10,32Z" fill-rule="evenodd"/>
        </g>
      </g>
      <path id="color" fill="#4264fb" stroke="#23374d" stroke-width="0.5" d="M19.25,10.4a13.0663,13.0663,0,0,1-1.4607,5.2235,41.5281,41.5281,0,0,1-3.2459,5.5483c-1.1829,1.7369-2.3662,3.2784-3.2541,4.3859-.4438.5536-.8135.9984-1.0721,1.3046-.0844.1-.157.1852-.2164.2545-.06-.07-.1325-.1564-.2173-.2578-.2587-.3088-.6284-.7571-1.0723-1.3147-.8879-1.1154-2.0714-2.6664-3.2543-4.41a42.2677,42.2677,0,0,1-3.2463-5.5535A12.978,12.978,0,0,1,.75,10.4,9.4659,9.4659,0,0,1,10,.75,9.4659,9.4659,0,0,1,19.25,10.4Z"/>

      <!-- Use the transform attribute to center the golf_player path inside the marker -->
      <path id='golf_player' transform="translate(2.5 4.5)"  d="M3.3999,1.1c0,0.1,0,0.2,0,0.2c0,0.4,0.3,0.7,0.7,0.7c0.3,0,0.5-0.2,0.6-0.5l0,0L4.9,1l5.6,2.3L6.6,6C6.2,6.3,6.2,6.7,6.3,7.1&#xA;&#x9;l0.9,2.1l-1.3,3.9C5.7,13.6,6.1,14,6.5,14c0.3,0,0.5-0.1,0.6-0.5l1.4-4l0.1,0.3v3.5c0,0,0,0.7,0.7,0.7s0.7-0.7,0.7-0.7V10&#xA;&#x9;c0-0.2,0-0.3-0.1-0.5L8.5,6.1l2.7-1.9c0.2-0.2,0.4-0.3,0.4-0.6s-0.2-0.5-0.4-0.6L4,0.1c-0.0878,0-0.118,0.0179-0.2001,0.1&#xA;&#x9;L3.3999,1.1z M5.5,3C4.7,3,4,3.7,4,4.5S4.7,6,5.5,6S7,5.3,7,4.5S6.2999,3,5.5,3z" fill="#fff" />
    </g>
  </g>
  <rect width="30" height="48" fill="none"/>
</svg>
