<svg id="marker" data-name="marker" xmlns="http://www.w3.org/2000/svg" width="40" height="60" viewBox="0 0 20 48">
  <g id="mapbox-marker-icon">
    <g id="icon">
      <ellipse id="shadow" cx="10" cy="27" rx="9" ry="5" fill="#c4c4c4" opacity="0.3" style="isolation: isolate"/>
      <g id="mask" opacity="0.3">
        <g id="group">
          <path id="shadow-2" data-name="shadow" fill="#bfbfbf" d="M10,32c5,0,9-2.2,9-5s-4-5-9-5-9,2.2-9,5S5,32,10,32Z" fill-rule="evenodd"/>
        </g>
      </g>
      <path id="color" fill="#5456c4" stroke="#23374d" stroke-width="0.5" d="M19.25,10.4a13.0663,13.0663,0,0,1-1.4607,5.2235,41.5281,41.5281,0,0,1-3.2459,5.5483c-1.1829,1.7369-2.3662,3.2784-3.2541,4.3859-.4438.5536-.8135.9984-1.0721,1.3046-.0844.1-.157.1852-.2164.2545-.06-.07-.1325-.1564-.2173-.2578-.2587-.3088-.6284-.7571-1.0723-1.3147-.8879-1.1154-2.0714-2.6664-3.2543-4.41a42.2677,42.2677,0,0,1-3.2463-5.5535A12.978,12.978,0,0,1,.75,10.4,9.4659,9.4659,0,0,1,10,.75,9.4659,9.4659,0,0,1,19.25,10.4Z"/>
          <path id="rect7143" transform="translate(2.5 4.5)" fill="#fff" d="M6,2C5.446,2,5.2478,2.5045,5,3L4.5,4h-2C1.669,4,1,4.669,1,5.5v5C1,11.331,1.669,12,2.5,12h10&#xA;&#x9;c0.831,0,1.5-0.669,1.5-1.5v-5C14,4.669,13.331,4,12.5,4h-2L10,3C9.75,2.5,9.554,2,9,2H6z M2.5,5C2.7761,5,3,5.2239,3,5.5&#xA;&#x9;S2.7761,6,2.5,6S2,5.7761,2,5.5S2.2239,5,2.5,5z M7.5,5c1.6569,0,3,1.3431,3,3s-1.3431,3-3,3s-3-1.3431-3-3S5.8431,5,7.5,5z&#xA;&#x9; M7.5,6.5C6.6716,6.5,6,7.1716,6,8l0,0c0,0.8284,0.6716,1.5,1.5,1.5l0,0C8.3284,9.5,9,8.8284,9,8l0,0C9,7.1716,8.3284,6.5,7.5,6.5&#xA;&#x9;L7.5,6.5z"/>
    </g>
  </g>
  <rect width="30" height="48" fill="none"/>
</svg>