<svg id="marker" data-name="marker" xmlns="http://www.w3.org/2000/svg" width="40" height="60" viewBox="0 0 20 48">
  <g id="mapbox-marker-icon">
    <g id="icon">
      <ellipse id="shadow" cx="10" cy="27" rx="9" ry="5" fill="#c4c4c4" opacity="0.3" style="isolation: isolate"/>
      <g id="mask" opacity="0.3">
        <g id="group">
          <path id="shadow-2" data-name="shadow" fill="#bfbfbf" d="M10,32c5,0,9-2.2,9-5s-4-5-9-5-9,2.2-9,5S5,32,10,32Z" fill-rule="evenodd"/>
        </g>
      </g>
      <path id="color" fill="#5456c4" stroke="#23374d" stroke-width="0.5" d="M19.25,10.4a13.0663,13.0663,0,0,1-1.4607,5.2235,41.5281,41.5281,0,0,1-3.2459,5.5483c-1.1829,1.7369-2.3662,3.2784-3.2541,4.3859-.4438.5536-.8135.9984-1.0721,1.3046-.0844.1-.157.1852-.2164.2545-.06-.07-.1325-.1564-.2173-.2578-.2587-.3088-.6284-.7571-1.0723-1.3147-.8879-1.1154-2.0714-2.6664-3.2543-4.41a42.2677,42.2677,0,0,1-3.2463-5.5535A12.978,12.978,0,0,1,.75,10.4,9.4659,9.4659,0,0,1,10,.75,9.4659,9.4659,0,0,1,19.25,10.4Z"/>
        <path id="path11774" transform="translate(2.5 4.5)" fill="#fff" d="M3.5,0l-1,5.5c-0.1464,0.805,1.7815,1.181,1.75,2L4,14c-0.0384,0.9993,1,1,1,1s1.0384-0.0007,1-1L5.75,7.5&#xA;&#x9;c-0.0314-0.8176,1.7334-1.1808,1.75-2L6.5,0H6l0.25,4L5.5,4.5L5.25,0h-0.5L4.5,4.5L3.75,4L4,0H3.5z M12,0&#xA;&#x9;c-0.7364,0-1.9642,0.6549-2.4551,1.6367C9.1358,2.3731,9,4.0182,9,5v2.5c0,0.8182,1.0909,1,1.5,1L10,14c-0.0905,0.9959,1,1,1,1&#xA;&#x9;s1,0,1-1V0z"/>
    </g>
  </g>
  <rect width="30" height="48" fill="none"/>
</svg>